<svg xmlns="http://www.w3.org/2000/svg" xmlns:xlink="http://www.w3.org/1999/xlink" version="1.1" x="0px" y="0px" viewBox="0 0 28 40" style="enable-background:new 0 0 28 32;" xml:space="preserve"><g><g><g><polygon points="9.815,21.969 11.702,21.969 10.798,19.994    "/><path d="M23,15H1c-0.55,0-1,0.45-1,1v10c0,0.55,0.45,1,1,1h22c0.551,0,1-0.45,1-1V16C24,15.45,23.551,15,23,15z M12.622,23.729     l-0.353-0.704h-2.95l-0.344,0.704C8.847,24,8.551,24.057,8.264,24c-0.256-0.145-0.416-0.432-0.256-0.768l2.294-4.485     c0.216-0.424,0.792-0.44,0.992,0l2.254,4.485C13.876,23.855,12.909,24.352,12.622,23.729z M15.559,23.512     c0,0.664-1.055,0.68-1.055,0v-4.564c0-0.656,1.055-0.68,1.055,0V23.512z"/></g><path d="M27,7.586L20.414,1C19.836,0.42,18.82,0,18,0H7C5.346,0,4,1.346,4,3v10c0,0.553,0.447,1,1,1s1-0.447,1-1V3    c0-0.551,0.448-1,1-1h9c1.105,0,2,0.896,2,2v3.75C18,8.988,19.014,10,20.25,10H24c1.105,0,2,0.896,2,2v17c0,0.551-0.447,1-1,1H7    c-0.552,0-1-0.449-1-1c0-0.553-0.447-1-1-1s-1,0.447-1,1c0,1.654,1.346,3,3,3h18c1.654,0,3-1.346,3-3V10    C28,9.181,27.58,8.165,27,7.586z"/></g></g><text x="0" y="47" fill="#000000" font-size="5px" font-weight="bold" font-family="'Helvetica Neue', Helvetica, Arial-Unicode, Arial, Sans-serif">Created by Dmitry Mirolyubov</text><text x="0" y="52" fill="#000000" font-size="5px" font-weight="bold" font-family="'Helvetica Neue', Helvetica, Arial-Unicode, Arial, Sans-serif">from the Noun Project</text></svg>